<mxfile host="app.diagrams.net" modified="2022-08-23T01:55:59.450Z" agent="5.0 (Macintosh; Intel Mac OS X 10_15_7) AppleWebKit/537.36 (KHTML, like Gecko) Chrome/104.0.5112.102 Safari/537.36" etag="orhD0NifOFHqTP249rIA" version="20.2.5" type="github">
  <diagram id="cGuN3zZYDBlpJiX49xBH" name="Page-1">
    <mxGraphModel dx="1426" dy="773" grid="1" gridSize="10" guides="1" tooltips="1" connect="1" arrows="1" fold="1" page="1" pageScale="1" pageWidth="850" pageHeight="1100" math="0" shadow="0">
      <root>
        <mxCell id="0" />
        <mxCell id="1" parent="0" />
        <mxCell id="0AmBVLNUBKlLO1aMU3Fs-5" value="Probe rental sites for new ads" style="edgeStyle=orthogonalEdgeStyle;rounded=0;orthogonalLoop=1;jettySize=auto;html=1;" edge="1" parent="1" source="0AmBVLNUBKlLO1aMU3Fs-1" target="0AmBVLNUBKlLO1aMU3Fs-4">
          <mxGeometry x="-0.5" y="-10" relative="1" as="geometry">
            <Array as="points">
              <mxPoint x="1000" y="216" />
              <mxPoint x="1000" y="90" />
            </Array>
            <mxPoint as="offset" />
          </mxGeometry>
        </mxCell>
        <mxCell id="0AmBVLNUBKlLO1aMU3Fs-7" style="edgeStyle=orthogonalEdgeStyle;rounded=0;orthogonalLoop=1;jettySize=auto;html=1;entryX=1;entryY=0.5;entryDx=0;entryDy=0;entryPerimeter=0;" edge="1" parent="1" source="0AmBVLNUBKlLO1aMU3Fs-1" target="0AmBVLNUBKlLO1aMU3Fs-6">
          <mxGeometry relative="1" as="geometry" />
        </mxCell>
        <mxCell id="0AmBVLNUBKlLO1aMU3Fs-11" value="Publish new ads" style="edgeLabel;html=1;align=center;verticalAlign=middle;resizable=0;points=[];" vertex="1" connectable="0" parent="0AmBVLNUBKlLO1aMU3Fs-7">
          <mxGeometry x="-0.0235" y="3" relative="1" as="geometry">
            <mxPoint y="-13" as="offset" />
          </mxGeometry>
        </mxCell>
        <mxCell id="0AmBVLNUBKlLO1aMU3Fs-60" style="edgeStyle=orthogonalEdgeStyle;rounded=0;orthogonalLoop=1;jettySize=auto;html=1;" edge="1" parent="1" source="0AmBVLNUBKlLO1aMU3Fs-1" target="0AmBVLNUBKlLO1aMU3Fs-58">
          <mxGeometry relative="1" as="geometry" />
        </mxCell>
        <mxCell id="0AmBVLNUBKlLO1aMU3Fs-1" value="houser-scraper" style="rounded=1;whiteSpace=wrap;html=1;" vertex="1" parent="1">
          <mxGeometry x="782" y="186" width="120" height="60" as="geometry" />
        </mxCell>
        <mxCell id="0AmBVLNUBKlLO1aMU3Fs-4" value="Idealista API" style="ellipse;shape=cloud;whiteSpace=wrap;html=1;" vertex="1" parent="1">
          <mxGeometry x="1090" y="50" width="120" height="80" as="geometry" />
        </mxCell>
        <mxCell id="0AmBVLNUBKlLO1aMU3Fs-14" style="edgeStyle=orthogonalEdgeStyle;rounded=0;orthogonalLoop=1;jettySize=auto;html=1;entryX=0.5;entryY=0;entryDx=0;entryDy=0;" edge="1" parent="1" source="0AmBVLNUBKlLO1aMU3Fs-6" target="0AmBVLNUBKlLO1aMU3Fs-12">
          <mxGeometry relative="1" as="geometry">
            <Array as="points">
              <mxPoint x="624" y="276" />
              <mxPoint x="624" y="276" />
            </Array>
          </mxGeometry>
        </mxCell>
        <mxCell id="0AmBVLNUBKlLO1aMU3Fs-15" value="Listen for new ads" style="edgeLabel;html=1;align=center;verticalAlign=middle;resizable=0;points=[];" vertex="1" connectable="0" parent="0AmBVLNUBKlLO1aMU3Fs-14">
          <mxGeometry x="0.2625" y="2" relative="1" as="geometry">
            <mxPoint x="-2" y="-5" as="offset" />
          </mxGeometry>
        </mxCell>
        <mxCell id="0AmBVLNUBKlLO1aMU3Fs-6" value="ad queue" style="outlineConnect=0;dashed=0;verticalLabelPosition=bottom;verticalAlign=top;align=center;html=1;shape=mxgraph.aws3.queue;fillColor=#D9A741;gradientColor=none;" vertex="1" parent="1">
          <mxGeometry x="587" y="192" width="73.5" height="48" as="geometry" />
        </mxCell>
        <mxCell id="0AmBVLNUBKlLO1aMU3Fs-55" style="edgeStyle=orthogonalEdgeStyle;rounded=0;orthogonalLoop=1;jettySize=auto;html=1;entryX=0;entryY=0.5;entryDx=0;entryDy=0;" edge="1" parent="1" source="0AmBVLNUBKlLO1aMU3Fs-8" target="0AmBVLNUBKlLO1aMU3Fs-16">
          <mxGeometry relative="1" as="geometry" />
        </mxCell>
        <mxCell id="0AmBVLNUBKlLO1aMU3Fs-61" value="CRUD ad queries" style="edgeLabel;html=1;align=center;verticalAlign=middle;resizable=0;points=[];" vertex="1" connectable="0" parent="0AmBVLNUBKlLO1aMU3Fs-55">
          <mxGeometry x="-0.1429" y="1" relative="1" as="geometry">
            <mxPoint y="-9" as="offset" />
          </mxGeometry>
        </mxCell>
        <mxCell id="0AmBVLNUBKlLO1aMU3Fs-8" value="houser-cli" style="rounded=1;whiteSpace=wrap;html=1;" vertex="1" parent="1">
          <mxGeometry x="270" y="470" width="120" height="60" as="geometry" />
        </mxCell>
        <mxCell id="0AmBVLNUBKlLO1aMU3Fs-10" style="edgeStyle=orthogonalEdgeStyle;rounded=0;orthogonalLoop=1;jettySize=auto;html=1;exitX=0.5;exitY=0.5;exitDx=0;exitDy=0;exitPerimeter=0;" edge="1" parent="1" source="0AmBVLNUBKlLO1aMU3Fs-9" target="0AmBVLNUBKlLO1aMU3Fs-8">
          <mxGeometry relative="1" as="geometry">
            <mxPoint x="140" y="486" as="targetPoint" />
          </mxGeometry>
        </mxCell>
        <mxCell id="0AmBVLNUBKlLO1aMU3Fs-54" value="Manage ad queries" style="edgeLabel;html=1;align=center;verticalAlign=middle;resizable=0;points=[];" vertex="1" connectable="0" parent="0AmBVLNUBKlLO1aMU3Fs-10">
          <mxGeometry x="-0.1942" y="-1" relative="1" as="geometry">
            <mxPoint x="3" y="-11" as="offset" />
          </mxGeometry>
        </mxCell>
        <mxCell id="0AmBVLNUBKlLO1aMU3Fs-53" style="edgeStyle=orthogonalEdgeStyle;rounded=0;orthogonalLoop=1;jettySize=auto;html=1;" edge="1" parent="1" source="0AmBVLNUBKlLO1aMU3Fs-9" target="0AmBVLNUBKlLO1aMU3Fs-21">
          <mxGeometry relative="1" as="geometry" />
        </mxCell>
        <mxCell id="0AmBVLNUBKlLO1aMU3Fs-9" value="Renter" style="shape=umlActor;verticalLabelPosition=bottom;verticalAlign=top;html=1;outlineConnect=0;" vertex="1" parent="1">
          <mxGeometry x="66.04" y="470" width="30" height="60" as="geometry" />
        </mxCell>
        <mxCell id="0AmBVLNUBKlLO1aMU3Fs-44" style="edgeStyle=orthogonalEdgeStyle;rounded=0;orthogonalLoop=1;jettySize=auto;html=1;" edge="1" parent="1" source="0AmBVLNUBKlLO1aMU3Fs-12" target="0AmBVLNUBKlLO1aMU3Fs-43">
          <mxGeometry relative="1" as="geometry" />
        </mxCell>
        <mxCell id="0AmBVLNUBKlLO1aMU3Fs-45" value="Store ad matches&lt;br&gt;per user and ad query" style="edgeLabel;html=1;align=center;verticalAlign=middle;resizable=0;points=[];" vertex="1" connectable="0" parent="0AmBVLNUBKlLO1aMU3Fs-44">
          <mxGeometry x="-0.1687" y="-3" relative="1" as="geometry">
            <mxPoint x="-13" y="-23" as="offset" />
          </mxGeometry>
        </mxCell>
        <mxCell id="0AmBVLNUBKlLO1aMU3Fs-47" style="edgeStyle=orthogonalEdgeStyle;rounded=0;orthogonalLoop=1;jettySize=auto;html=1;" edge="1" parent="1" source="0AmBVLNUBKlLO1aMU3Fs-12" target="0AmBVLNUBKlLO1aMU3Fs-46">
          <mxGeometry relative="1" as="geometry" />
        </mxCell>
        <mxCell id="0AmBVLNUBKlLO1aMU3Fs-49" style="edgeStyle=orthogonalEdgeStyle;rounded=0;orthogonalLoop=1;jettySize=auto;html=1;entryX=0;entryY=0.5;entryDx=0;entryDy=0;" edge="1" parent="1" source="0AmBVLNUBKlLO1aMU3Fs-12" target="0AmBVLNUBKlLO1aMU3Fs-48">
          <mxGeometry relative="1" as="geometry" />
        </mxCell>
        <mxCell id="0AmBVLNUBKlLO1aMU3Fs-12" value="houser-matcher" style="rounded=1;whiteSpace=wrap;html=1;" vertex="1" parent="1">
          <mxGeometry x="563.75" y="336" width="120" height="60" as="geometry" />
        </mxCell>
        <mxCell id="0AmBVLNUBKlLO1aMU3Fs-56" style="edgeStyle=orthogonalEdgeStyle;rounded=0;orthogonalLoop=1;jettySize=auto;html=1;" edge="1" parent="1" source="0AmBVLNUBKlLO1aMU3Fs-16" target="0AmBVLNUBKlLO1aMU3Fs-48">
          <mxGeometry relative="1" as="geometry">
            <Array as="points">
              <mxPoint x="842" y="500" />
            </Array>
          </mxGeometry>
        </mxCell>
        <mxCell id="0AmBVLNUBKlLO1aMU3Fs-63" value="CRUD ad queries" style="edgeLabel;html=1;align=center;verticalAlign=middle;resizable=0;points=[];" vertex="1" connectable="0" parent="0AmBVLNUBKlLO1aMU3Fs-56">
          <mxGeometry x="-0.1622" y="4" relative="1" as="geometry">
            <mxPoint y="-6" as="offset" />
          </mxGeometry>
        </mxCell>
        <mxCell id="0AmBVLNUBKlLO1aMU3Fs-16" value="houser-api" style="rounded=1;whiteSpace=wrap;html=1;" vertex="1" parent="1">
          <mxGeometry x="530" y="470" width="120" height="60" as="geometry" />
        </mxCell>
        <mxCell id="0AmBVLNUBKlLO1aMU3Fs-41" style="edgeStyle=orthogonalEdgeStyle;rounded=0;orthogonalLoop=1;jettySize=auto;html=1;" edge="1" parent="1" source="0AmBVLNUBKlLO1aMU3Fs-19" target="0AmBVLNUBKlLO1aMU3Fs-21">
          <mxGeometry relative="1" as="geometry" />
        </mxCell>
        <mxCell id="0AmBVLNUBKlLO1aMU3Fs-42" value="Send a daily email with all matches&lt;br&gt;&amp;nbsp;found for a user&#39;s ad query" style="edgeLabel;html=1;align=center;verticalAlign=middle;resizable=0;points=[];" vertex="1" connectable="0" parent="0AmBVLNUBKlLO1aMU3Fs-41">
          <mxGeometry x="-0.2148" y="4" relative="1" as="geometry">
            <mxPoint x="-14" y="-40" as="offset" />
          </mxGeometry>
        </mxCell>
        <mxCell id="0AmBVLNUBKlLO1aMU3Fs-51" style="edgeStyle=orthogonalEdgeStyle;rounded=0;orthogonalLoop=1;jettySize=auto;html=1;" edge="1" parent="1" source="0AmBVLNUBKlLO1aMU3Fs-19" target="0AmBVLNUBKlLO1aMU3Fs-43">
          <mxGeometry relative="1" as="geometry">
            <Array as="points" />
          </mxGeometry>
        </mxCell>
        <mxCell id="0AmBVLNUBKlLO1aMU3Fs-52" value="Once a day, fetch all matches for a given user and ad query" style="edgeLabel;html=1;align=center;verticalAlign=middle;resizable=0;points=[];" vertex="1" connectable="0" parent="0AmBVLNUBKlLO1aMU3Fs-51">
          <mxGeometry x="-0.234" y="-3" relative="1" as="geometry">
            <mxPoint x="-3" as="offset" />
          </mxGeometry>
        </mxCell>
        <mxCell id="0AmBVLNUBKlLO1aMU3Fs-19" value="houser-notifier" style="rounded=1;whiteSpace=wrap;html=1;" vertex="1" parent="1">
          <mxGeometry x="280" y="186" width="120" height="60" as="geometry" />
        </mxCell>
        <mxCell id="0AmBVLNUBKlLO1aMU3Fs-21" value="Inbox" style="sketch=0;outlineConnect=0;fontColor=#232F3E;gradientColor=none;fillColor=#232F3D;strokeColor=none;dashed=0;verticalLabelPosition=bottom;verticalAlign=top;align=center;html=1;fontSize=12;fontStyle=0;aspect=fixed;pointerEvents=1;shape=mxgraph.aws4.email_2;" vertex="1" parent="1">
          <mxGeometry x="50" y="196.5" width="62.08" height="39" as="geometry" />
        </mxCell>
        <mxCell id="0AmBVLNUBKlLO1aMU3Fs-43" value="Matches" style="shape=datastore;whiteSpace=wrap;html=1;" vertex="1" parent="1">
          <mxGeometry x="310" y="336" width="60" height="60" as="geometry" />
        </mxCell>
        <mxCell id="0AmBVLNUBKlLO1aMU3Fs-46" value="Users" style="shape=datastore;whiteSpace=wrap;html=1;" vertex="1" parent="1">
          <mxGeometry x="812" y="300" width="60" height="60" as="geometry" />
        </mxCell>
        <mxCell id="0AmBVLNUBKlLO1aMU3Fs-48" value="Ad queries" style="shape=datastore;whiteSpace=wrap;html=1;" vertex="1" parent="1">
          <mxGeometry x="812" y="410" width="60" height="60" as="geometry" />
        </mxCell>
        <mxCell id="0AmBVLNUBKlLO1aMU3Fs-58" value="ImoVirtual&lt;br&gt;website" style="ellipse;shape=cloud;whiteSpace=wrap;html=1;" vertex="1" parent="1">
          <mxGeometry x="1090" y="176" width="120" height="80" as="geometry" />
        </mxCell>
      </root>
    </mxGraphModel>
  </diagram>
</mxfile>
